{"title":"Dohchay (2015) Telugu 720p WEBRip","uid":12218670,"size":921549522,"categoryP":"video","categoryS":"movies","magnet":"?xt=urn:btih:6e3d1752d9d998e74e52c9813d33753e03d400ea&amp;dn=Dohchay+%282015%29+Telugu+720p+WEBRip&amp;tr=udp%3A%2F%2Ftracker.openbittorrent.com%3A80&amp;tr=udp%3A%2F%2Fopen.demonii.com%3A1337&amp;tr=udp%3A%2F%2Ftracker.coppersurfer.tk%3A6969&amp;tr=udp%3A%2F%2Fexodus.desync.com%3A6969","seeders":0,"leechers":0,"uploader":"shuvoboss","files":1,"time":1439306327,"description":"Dohchay (2015)\nAction  |  24 April 2015 (India)\nDirector: Sudheer Varma\nWriters: Arjun, Carthik, 2 more credits Â»\nStars: Naga Chaitanya Akkineni, Ravi Babu, Brahmanandam\n\nStoryline\nA conman faces his biggest threat when he is in urgent need for a lump sum and a policeman is after him to catch him red handed.\n\nScreenshots &lt;a href=&quot;\nhttp://imgur.com/HLtpKak&quot; rel=&quot;nofollow&quot; target=&quot;_NEW&quot;&gt;\nhttp://imgur.com/HLtpKak&lt;/a&gt; &lt;a href=&quot;\nhttp://imgur.com/vPfWSis&quot; rel=&quot;nofollow&quot; target=&quot;_NEW&quot;&gt;\nhttp://imgur.com/vPfWSis&lt;/a&gt; &lt;a href=&quot;\nhttp://imgur.com/Af4S3dT&quot; rel=&quot;nofollow&quot; target=&quot;_NEW&quot;&gt;\nhttp://imgur.com/Af4S3dT&lt;/a&gt;\n\nComplete name               : Dohchay (2015) 720p WEBRip.mp4\nFormat                      : MPEG-4\nFormat profile              : Base Media / Version 2\nCodec ID                    : mp42\nFile size                   : 879 MiB\nDuration                    : 2h 11mn\nOverall bit rate mode       : Variable\nOverall bit rate            : 933 Kbps\nEncoded date                : UTC 2036-02-06 06:28:16\nTagged date                 : UTC 2036-02-06 06:28:16\nWriting application         : HandBrake 0.10.2 2015060900\n\nVideo\nFormat                      : AVC\nFormat/Info                 : Advanced Video Codec\nFormat profile              : High@L4\nFormat settings, CABAC      : Yes\nFormat settings, ReFrames   : 4 frames\nCodec ID                    : avc1\nCodec ID/Info               : Advanced Video Coding\nDuration                    : 2h 11mn\nBit rate                    : 863 Kbps\nWidth                       : 640 pixels\nHeight                      : 280 pixels\nDisplay aspect ratio        : 2.25:1\nFrame rate mode             : Variable\nFrame rate                  : 25.000 fps\nMinimum frame rate          : 25.000 fps\nMaximum frame rate          : 28.240 fps\nColor space                 : YUV\nChroma subsampling          : 4:2:0\nBit depth                   : 8 bits\nScan type                   : Progressive\nBits/(Pixel*Frame)          : 0.193\nStream size                 : 813 MiB (93%)\n\nAudio\nFormat                      : AAC\nFormat/Info                 : Advanced Audio Codec\nFormat profile              : LC\nCodec ID                    : 40\nDuration                    : 2h 11mn\nBit rate mode               : Variable\nBit rate                    : 63.9 Kbps\nChannel(s)                  : 2 channels\nChannel positions           : Front: L R\nSampling rate               : 44.1 KHz\nCompression mode            : Lossy\nStream size                 : 60.2 MiB (7%)\nTitle                       : Stereo / Stereo","torrent":{"xt":"urn:btih:6e3d1752d9d998e74e52c9813d33753e03d400ea","amp;dn":"Dohchay+%282015%29+Telugu+720p+WEBRip","amp;tr":["udp%3A%2F%2Ftracker.openbittorrent.com%3A80","udp%3A%2F%2Fopen.demonii.com%3A1337","udp%3A%2F%2Ftracker.coppersurfer.tk%3A6969","udp%3A%2F%2Fexodus.desync.com%3A6969"],"infoHash":"6e3d1752d9d998e74e52c9813d33753e03d400ea","infoHashBuffer":{"type":"Buffer","data":[110,61,23,82,217,217,152,231,78,82,201,129,61,51,117,62,3,212,0,234]},"announce":[],"urlList":[]}}